<svg version="1.1"
xmlns="http://www.w3.org/2000/svg"
xmlns:xlink="http://www.w3.org/1999/xlink"
width="3811" height="200" viewBox = "0 0 3811 200"
onclick="mouseclick(evt)">

<script type="text/ecmascript">

<![CDATA[
    function mouseover(evt, target) { 
    var gv = document.getElementById("globalVariable");
    var previoustarget = gv.firstChild.nodeValue;
    if (previoustarget != "none") 
    {
        	document.getElementById(gv.firstChild.nodeValue).setAttributeNS(null, "visibility", "hidden");
    }
    document.getElementById(target).setAttributeNS(null, "visibility", "visible");
    gv.firstChild.nodeValue = target;
        }

    function mouseclick(evt) { 
    var gv = document.getElementById("globalVariable");
    var previoustarget = gv.firstChild.nodeValue;
    if (previoustarget != "none") {
        	document.getElementById(gv.firstChild.nodeValue).setAttributeNS(null, "visibility", "hidden");
        }
    }
]]>
  </script>
<style type="text/css" >

<![CDATA[
    rect.anc_exon {
              stroke-width:3;
                  }

    rect.non_anc_exon {
              stroke: black; stroke-width:3; stroke-dasharray: 5,5;
                    }

    text {
              font-size: 18px;
              font-family: Courier New;
          }
                    ]]>
</style>

<defs>
    <text x="150" y="40" id="globalVariable">none</text>
</defs>

  <rect class="anc_exon" x="0" y="35.0" width="0" height="30" style="fill:#87bcbc;fill-opacity:1.00" />
  <rect class="anc_exon" x="0" y="35.0" width="164.0" height="30" style="fill:#87bcbc;fill-opacity:1.00" />
  <line x1="4.0" y1="35.0" x2="4.0" y2="65.0" style="stroke:#878787; stroke-width:1.6; stroke-opacity:1"/>
  <line x1="147.6" y1="35.0" x2="147.6" y2="65.0" style="stroke:#878787; stroke-width:0.8; stroke-opacity:1"/>
  <text style="" text-anchor="middle">
<tspan x="3.2" y="26.0" style="font-size:18px;fill:#878787;" >-2</tspan>  </text>
  <text style="" text-anchor="middle">
<tspan x="147.20000000000002" y="26.0" style="font-size:18px;fill:#878787;" >-1</tspan>  </text>
  <line x1="164.0" y1="50.0" x2="184.0" y2="50.0" style="stroke:#999; stroke-width:3;" />
  <line x1="184.0" y1="50.0" x2="184.0" y2="50.0" style="stroke:#999; stroke-width:3;" />
  <line x1="184.0" y1="50.0" x2="184.0" y2="50.0" style="stroke:#999; stroke-width:3;" />
  <line x1="184.0" y1="50.0" x2="204.0" y2="50.0" style="stroke:#999; stroke-width:3;" />
  <rect class="anc_exon" x="204" y="35.0" width="98" height="30" style="fill:#87bcbc;fill-opacity:1.00" />
  <line x1="211.6" y1="35.0" x2="211.6" y2="65.0" style="stroke:#cf232b; stroke-width:0.8; stroke-opacity:1"/>
  <text style="" text-anchor="middle">
<tspan x="211.2" y="26.0" style="font-size:18px;fill:#cf232b;" >-1</tspan>  </text>
  <line x1="302" y1="50.0" x2="322" y2="50.0" style="stroke:#999; stroke-width:3;" />
  <line x1="322" y1="50.0" x2="322" y2="50.0" style="stroke:#999; stroke-width:3;" />
  <line x1="322" y1="50.0" x2="322" y2="50.0" style="stroke:#999; stroke-width:3;" />
  <line x1="322" y1="50.0" x2="342" y2="50.0" style="stroke:#999; stroke-width:3;" />
  <rect class="anc_exon" x="342" y="35.0" width="98" height="30" style="fill:#87bcbc;fill-opacity:1.00" />
  <line x1="440" y1="50.0" x2="480" y2="50.0" style="stroke:#999; stroke-width:3;" />
  <rect class="anc_exon" x="480" y="35.0" width="65" height="30" style="fill:#87bcbc;fill-opacity:1.00" />
  <line x1="545" y1="50.0" x2="585" y2="50.0" style="stroke:#999; stroke-width:3;" />
  <rect class="anc_exon" x="585" y="35.0" width="83" height="30" style="fill:#87bcbc;fill-opacity:1.00" />
  <line x1="668" y1="50.0" x2="708" y2="50.0" style="stroke:#999; stroke-width:3;" />
  <rect class="anc_exon" x="708" y="35.0" width="97" height="30" style="fill:#87bcbc;fill-opacity:1.00" />
  <polygon points="787.2,35.0 789.7,25.0 784.7,25.0" style="fill:#cf232b; stroke-opacity:1; fill-opacity:1"/>
  <line x1="799.6" y1="35.0" x2="799.6" y2="65.0" style="stroke:#cf232b; stroke-width:0.8; stroke-opacity:1"/>
  <text style="" text-anchor="middle">
<tspan x="793.2" y="16.0" style="font-size:18px;fill:#cf232b;" >+1</tspan><tspan x="793.2" y="-2.0" style="font-size:18px;fill:#cf232b;" >-1</tspan>  </text>
  <line x1="805" y1="50.0" x2="845" y2="50.0" style="stroke:#999; stroke-width:3;" />
  <rect class="anc_exon" x="845" y="35.0" width="137" height="30" style="fill:#87bcbc;fill-opacity:1.00" />
  <line x1="966.2" y1="35.0" x2="966.2" y2="65.0" style="stroke:#cf232b; stroke-width:0.8; stroke-opacity:1"/>
  <text style="" text-anchor="middle">
<tspan x="965.8" y="26.0" style="font-size:18px;fill:#cf232b;" >-1</tspan>  </text>
  <line x1="982" y1="50.0" x2="1022" y2="50.0" style="stroke:#999; stroke-width:3;" />
  <rect class="anc_exon" x="1022" y="35.0" width="126" height="30" style="fill:#87bcbc;fill-opacity:1.00" />
  <line x1="1148" y1="50.0" x2="1188" y2="50.0" style="stroke:#999; stroke-width:3;" />
  <rect class="anc_exon" x="1188" y="35.0" width="113" height="30" style="fill:#87bcbc;fill-opacity:1.00" />
  <line x1="1301" y1="50.0" x2="1341" y2="50.0" style="stroke:#999; stroke-width:3;" />
  <rect class="anc_exon" x="1341" y="35.0" width="100" height="30" style="fill:#87bcbc;fill-opacity:1.00" />
  <line x1="1351.0" y1="35.0" x2="1351.0" y2="65.0" style="stroke:#cf232b; stroke-width:0.8; stroke-opacity:1"/>
  <text style="" text-anchor="middle">
<tspan x="1350.6" y="26.0" style="font-size:18px;fill:#cf232b;" >-1</tspan>  </text>
  <line x1="1441" y1="50.0" x2="1481" y2="50.0" style="stroke:#999; stroke-width:3;" />
  <rect class="anc_exon" x="1481" y="35.0" width="135" height="30" style="fill:#87bcbc;fill-opacity:1.00" />
  <line x1="1616" y1="50.0" x2="1656" y2="50.0" style="stroke:#999; stroke-width:3;" />
  <rect class="anc_exon" x="1656" y="35.0" width="112" height="30" style="fill:#87bcbc;fill-opacity:1.00" />
  <line x1="1702.4" y1="35.0" x2="1702.4" y2="65.0" style="stroke:#cf232b; stroke-width:1.6; stroke-opacity:1"/>
  <text style="" text-anchor="middle">
<tspan x="1701.6" y="26.0" style="font-size:18px;fill:#cf232b;" >-2</tspan>  </text>
  <line x1="1768" y1="50.0" x2="1808" y2="50.0" style="stroke:#999; stroke-width:3;" />
  <rect class="anc_exon" x="1808" y="35.0" width="132" height="30" style="fill:#87bcbc;fill-opacity:1.00" />
  <line x1="1940" y1="50.0" x2="1980" y2="50.0" style="stroke:#999; stroke-width:3;" />
  <rect class="anc_exon" x="1980" y="35.0" width="112" height="30" style="fill:#87bcbc;fill-opacity:1.00" />
  <line x1="2092" y1="50.0" x2="2132" y2="50.0" style="stroke:#999; stroke-width:3;" />
  <rect class="anc_exon" x="2132" y="35.0" width="112" height="30" style="fill:#87bcbc;fill-opacity:1.00" />
  <line x1="2245.6" y1="35.0" x2="2245.6" y2="65.0" style="stroke:#cf232b; stroke-width:1.6; stroke-opacity:1"/>
  <text style="" text-anchor="middle">
<tspan x="2244.8" y="26.0" style="font-size:18px;fill:#cf232b;" >-2</tspan>  </text>
  <line x1="2244" y1="50.0" x2="2284" y2="50.0" style="stroke:#999; stroke-width:3;" />
  <rect class="anc_exon" x="2284" y="35.0" width="97" height="30" style="fill:#87bcbc;fill-opacity:1.00" />
  <line x1="2381" y1="50.0" x2="2421" y2="50.0" style="stroke:#999; stroke-width:3;" />
  <rect class="anc_exon" x="2421" y="35.0" width="128" height="30" style="fill:#87bcbc;fill-opacity:1.00" />
  <line x1="2485.0" y1="35.0" x2="2485.0" y2="65.0" style="stroke:#121212;stroke-width:3;"/>
  <polygon points="2520.2,35.0 2522.7,25.0 2517.7,25.0" style="fill:#cf232b; stroke-opacity:1; fill-opacity:1"/>
  <text style="" text-anchor="middle">
<tspan x="2484.2" y="26.0" style="font-size:18px;fill:#121212;" >TGA</tspan>  </text>
  <text style="" text-anchor="middle">
<tspan x="2520.2" y="16.0" style="font-size:18px;fill:#cf232b;" >+2</tspan>  </text>
  <line x1="2549" y1="50.0" x2="2589" y2="50.0" style="stroke:#999; stroke-width:3;" />
  <rect class="anc_exon" x="2589" y="35.0" width="125" height="30" style="fill:#87bcbc;fill-opacity:1.00" />
  <line x1="2714" y1="50.0" x2="2754" y2="50.0" style="stroke:#999; stroke-width:3;" />
  <rect class="anc_exon" x="2754" y="35.0" width="121" height="30" style="fill:#87bcbc;fill-opacity:1.00" />
  <line x1="2875" y1="50.0" x2="2895" y2="50.0" style="stroke:#999; stroke-width:3;" />
  <line x1="2895" y1="50.0" x2="2895" y2="50.0" style="stroke:#999; stroke-width:3;" />
  <line x1="2895" y1="50.0" x2="2895" y2="50.0" style="stroke:#999; stroke-width:3;" />
  <line x1="2895" y1="50.0" x2="2915" y2="50.0" style="stroke:#999; stroke-width:3;" />
  <rect class="anc_exon" x="2915" y="35.0" width="89" height="30" style="fill:#87bcbc;fill-opacity:1.00" />
  <polygon points="2946.2,35.0 2948.7,25.0 2943.7,25.0" style="fill:#cf232b; stroke-opacity:1; fill-opacity:1"/>
  <line x1="2975.4" y1="35.0" x2="2975.4" y2="65.0" style="stroke:#cf232b; stroke-width:0.8; stroke-opacity:1"/>
  <text style="" text-anchor="middle">
<tspan x="2946.2" y="16.0" style="font-size:18px;fill:#cf232b;" >+2</tspan>  </text>
  <text style="" text-anchor="middle">
<tspan x="2975.0" y="26.0" style="font-size:18px;fill:#cf232b;" >-1</tspan>  </text>
  <line x1="3004" y1="50.0" x2="3044" y2="50.0" style="stroke:#999; stroke-width:3;" />
  <rect class="anc_exon" x="3044" y="35.0" width="145" height="30" style="fill:#87bcbc;fill-opacity:1.00" />
  <line x1="3189" y1="50.0" x2="3229" y2="50.0" style="stroke:#999; stroke-width:3;" />
  <rect class="anc_exon" x="3229" y="35.0" width="26" height="30" style="fill:#87bcbc;fill-opacity:1.00" />
  <line x1="3255" y1="50.0" x2="3295" y2="50.0" style="stroke:#999; stroke-width:3;" />
  <rect class="anc_exon" x="3295" y="35.0" width="128" height="30" style="fill:#87bcbc;fill-opacity:1.00" />
  <line x1="3423" y1="50.0" x2="3463" y2="50.0" style="stroke:#999; stroke-width:3;" />
  <rect class="anc_exon" x="3463" y="35.0" width="17" height="30" style="fill:#0c7bdc;fill-opacity:1.00" />
  <line x1="3480" y1="50.0" x2="3520" y2="50.0" style="stroke:#999; stroke-width:3;" />
  <rect class="anc_exon" x="3520" y="35.0" width="64" height="30" style="fill:#87bcbc;fill-opacity:1.00" />
  <line x1="3559.2" y1="35.0" x2="3559.2" y2="65.0" style="stroke:#878787; stroke-width:1.6; stroke-opacity:1"/>
  <text style="" text-anchor="middle">
<tspan x="3558.4" y="26.0" style="font-size:18px;fill:#878787;" >-2</tspan>  </text>
  <line x1="3584" y1="50.0" x2="3624" y2="50.0" style="stroke:#999; stroke-width:3;" />
  <rect class="anc_exon" x="3624" y="35.0" width="151" height="30" style="fill:#87bcbc;fill-opacity:1.00" />
  <polygon points="3752.0,35.0 3754.5,25.0 3749.5,25.0" style="fill:#878787; stroke-opacity:1; fill-opacity:1"/>
  <text style="" text-anchor="middle">
<tspan x="3752.0" y="16.0" style="font-size:18px;fill:#878787;" >+2</tspan>  </text>
  <rect class="anc_exon" x="3775" y="35.0" width="0" height="30" style="fill:#87bcbc;fill-opacity:1.00" />
  <text style="" >
<tspan x="0" y="83.0" style="font-size:18px;" >SP ENSCGOT00000020721.2</tspan>  </text>
  <text style="fill:#cf232b;" >
<tspan x="1768" y="50.0" style="font-size:18px;fill:#cf232b;" >tc</tspan>  </text>
  <text style="fill:#878787;" >
<tspan x="3423" y="50.0" style="font-size:18px;fill:#878787;" >gg</tspan>  </text>
  <path d="M4.0 35.0 C 75.0 45.0 75.0 45.0 147.20000000000002 35.0" style="fill:none;stroke-width:1;stroke:green;" />
  <rect class="anc_exon" x="0" y="135.0" width="0" height="30" style="fill:#87bcbc;fill-opacity:1.00" />
  <rect class="anc_exon" x="0" y="135.0" width="164.0" height="30" style="fill:#87bcbc;fill-opacity:1.00" />
  <line x1="4.0" y1="135.0" x2="4.0" y2="165.0" style="stroke:#878787; stroke-width:1.6; stroke-opacity:1"/>
  <line x1="147.6" y1="135.0" x2="147.6" y2="165.0" style="stroke:#878787; stroke-width:0.8; stroke-opacity:1"/>
  <text style="" text-anchor="middle">
<tspan x="3.2" y="126.0" style="font-size:18px;fill:#878787;" >-2</tspan>  </text>
  <text style="" text-anchor="middle">
<tspan x="147.20000000000002" y="126.0" style="font-size:18px;fill:#878787;" >-1</tspan>  </text>
  <line x1="164.0" y1="150.0" x2="184.0" y2="150.0" style="stroke:#999; stroke-width:3;" />
  <line x1="184.0" y1="150.0" x2="184.0" y2="150.0" style="stroke:#999; stroke-width:3;" />
  <line x1="184.0" y1="150.0" x2="184.0" y2="150.0" style="stroke:#999; stroke-width:3;" />
  <line x1="184.0" y1="150.0" x2="204.0" y2="150.0" style="stroke:#999; stroke-width:3;" />
  <rect class="anc_exon" x="204" y="135.0" width="98" height="30" style="fill:#87bcbc;fill-opacity:1.00" />
  <line x1="211.6" y1="135.0" x2="211.6" y2="165.0" style="stroke:#cf232b; stroke-width:0.8; stroke-opacity:1"/>
  <text style="" text-anchor="middle">
<tspan x="211.2" y="126.0" style="font-size:18px;fill:#cf232b;" >-1</tspan>  </text>
  <line x1="302" y1="150.0" x2="322" y2="150.0" style="stroke:#999; stroke-width:3;" />
  <line x1="322" y1="150.0" x2="322" y2="150.0" style="stroke:#999; stroke-width:3;" />
  <line x1="322" y1="150.0" x2="322" y2="150.0" style="stroke:#999; stroke-width:3;" />
  <line x1="322" y1="150.0" x2="342" y2="150.0" style="stroke:#999; stroke-width:3;" />
  <rect class="anc_exon" x="342" y="135.0" width="98" height="30" style="fill:#87bcbc;fill-opacity:1.00" />
  <line x1="440" y1="150.0" x2="480" y2="150.0" style="stroke:#999; stroke-width:3;" />
  <rect class="anc_exon" x="480" y="135.0" width="65" height="30" style="fill:#87bcbc;fill-opacity:1.00" />
  <line x1="545" y1="150.0" x2="585" y2="150.0" style="stroke:#999; stroke-width:3;" />
  <rect class="anc_exon" x="585" y="135.0" width="83" height="30" style="fill:#87bcbc;fill-opacity:1.00" />
  <line x1="668" y1="150.0" x2="708" y2="150.0" style="stroke:#999; stroke-width:3;" />
  <rect class="anc_exon" x="708" y="135.0" width="97" height="30" style="fill:#87bcbc;fill-opacity:1.00" />
  <polygon points="787.2,135.0 789.7,125.0 784.7,125.0" style="fill:#cf232b; stroke-opacity:1; fill-opacity:1"/>
  <line x1="799.6" y1="135.0" x2="799.6" y2="165.0" style="stroke:#cf232b; stroke-width:0.8; stroke-opacity:1"/>
  <text style="" text-anchor="middle">
<tspan x="793.2" y="116.0" style="font-size:18px;fill:#cf232b;" >+1</tspan><tspan x="793.2" y="98.0" style="font-size:18px;fill:#cf232b;" >-1</tspan>  </text>
  <line x1="805" y1="150.0" x2="845" y2="150.0" style="stroke:#999; stroke-width:3;" />
  <rect class="anc_exon" x="845" y="135.0" width="137" height="30" style="fill:#87bcbc;fill-opacity:1.00" />
  <line x1="966.2" y1="135.0" x2="966.2" y2="165.0" style="stroke:#cf232b; stroke-width:0.8; stroke-opacity:1"/>
  <text style="" text-anchor="middle">
<tspan x="965.8" y="126.0" style="font-size:18px;fill:#cf232b;" >-1</tspan>  </text>
  <line x1="982" y1="150.0" x2="1022" y2="150.0" style="stroke:#999; stroke-width:3;" />
  <rect class="anc_exon" x="1022" y="135.0" width="126" height="30" style="fill:#87bcbc;fill-opacity:1.00" />
  <line x1="1148" y1="150.0" x2="1188" y2="150.0" style="stroke:#999; stroke-width:3;" />
  <rect class="anc_exon" x="1188" y="135.0" width="113" height="30" style="fill:#87bcbc;fill-opacity:1.00" />
  <line x1="1301" y1="150.0" x2="1341" y2="150.0" style="stroke:#999; stroke-width:3;" />
  <rect class="anc_exon" x="1341" y="135.0" width="100" height="30" style="fill:#87bcbc;fill-opacity:1.00" />
  <line x1="1351.0" y1="135.0" x2="1351.0" y2="165.0" style="stroke:#cf232b; stroke-width:0.8; stroke-opacity:1"/>
  <text style="" text-anchor="middle">
<tspan x="1350.6" y="126.0" style="font-size:18px;fill:#cf232b;" >-1</tspan>  </text>
  <line x1="1441" y1="150.0" x2="1481" y2="150.0" style="stroke:#999; stroke-width:3;" />
  <rect class="anc_exon" x="1481" y="135.0" width="135" height="30" style="fill:#87bcbc;fill-opacity:1.00" />
  <line x1="1616" y1="150.0" x2="1656" y2="150.0" style="stroke:#999; stroke-width:3;" />
  <rect class="anc_exon" x="1656" y="135.0" width="112" height="30" style="fill:#87bcbc;fill-opacity:1.00" />
  <line x1="1702.4" y1="135.0" x2="1702.4" y2="165.0" style="stroke:#cf232b; stroke-width:1.6; stroke-opacity:1"/>
  <text style="" text-anchor="middle">
<tspan x="1701.6" y="126.0" style="font-size:18px;fill:#cf232b;" >-2</tspan>  </text>
  <line x1="1768" y1="150.0" x2="1808" y2="150.0" style="stroke:#999; stroke-width:3;" />
  <rect class="anc_exon" x="1808" y="135.0" width="132" height="30" style="fill:#87bcbc;fill-opacity:1.00" />
  <line x1="1940" y1="150.0" x2="1980" y2="150.0" style="stroke:#999; stroke-width:3;" />
  <rect class="anc_exon" x="1980" y="135.0" width="112" height="30" style="fill:#87bcbc;fill-opacity:1.00" />
  <line x1="2092" y1="150.0" x2="2132" y2="150.0" style="stroke:#999; stroke-width:3;" />
  <rect class="anc_exon" x="2132" y="135.0" width="112" height="30" style="fill:#87bcbc;fill-opacity:1.00" />
  <line x1="2245.6" y1="135.0" x2="2245.6" y2="165.0" style="stroke:#cf232b; stroke-width:1.6; stroke-opacity:1"/>
  <text style="" text-anchor="middle">
<tspan x="2244.8" y="126.0" style="font-size:18px;fill:#cf232b;" >-2</tspan>  </text>
  <line x1="2244" y1="150.0" x2="2284" y2="150.0" style="stroke:#999; stroke-width:3;" />
  <rect class="anc_exon" x="2284" y="135.0" width="97" height="30" style="fill:#87bcbc;fill-opacity:1.00" />
  <line x1="2380.8" y1="135.0" x2="2380.8" y2="165.0" style="stroke:#121212;stroke-width:3;"/>
  <text style="" text-anchor="middle">
<tspan x="2380.0" y="126.0" style="font-size:18px;fill:#121212;" >TGA</tspan>  </text>
  <line x1="2381" y1="150.0" x2="2421" y2="150.0" style="stroke:#999; stroke-width:3;" />
  <rect class="anc_exon" x="2421" y="135.0" width="128" height="30" style="fill:#87bcbc;fill-opacity:1.00" />
  <line x1="2485.0" y1="135.0" x2="2485.0" y2="165.0" style="stroke:#121212;stroke-width:3;"/>
  <polygon points="2520.2,135.0 2522.7,125.0 2517.7,125.0" style="fill:#cf232b; stroke-opacity:1; fill-opacity:1"/>
  <text style="" text-anchor="middle">
<tspan x="2484.2" y="126.0" style="font-size:18px;fill:#121212;" >TGA</tspan>  </text>
  <text style="" text-anchor="middle">
<tspan x="2520.2" y="116.0" style="font-size:18px;fill:#cf232b;" >+2</tspan>  </text>
  <line x1="2549" y1="150.0" x2="2589" y2="150.0" style="stroke:#999; stroke-width:3;" />
  <rect class="anc_exon" x="2589" y="135.0" width="125" height="30" style="fill:#87bcbc;fill-opacity:1.00" />
  <line x1="2714" y1="150.0" x2="2754" y2="150.0" style="stroke:#999; stroke-width:3;" />
  <rect class="anc_exon" x="2754" y="135.0" width="121" height="30" style="fill:#87bcbc;fill-opacity:1.00" />
  <line x1="2875" y1="150.0" x2="2895" y2="150.0" style="stroke:#999; stroke-width:3;" />
  <line x1="2895" y1="150.0" x2="2895" y2="150.0" style="stroke:#999; stroke-width:3;" />
  <line x1="2895" y1="150.0" x2="2895" y2="150.0" style="stroke:#999; stroke-width:3;" />
  <line x1="2895" y1="150.0" x2="2915" y2="150.0" style="stroke:#999; stroke-width:3;" />
  <rect class="anc_exon" x="2915" y="135.0" width="89" height="30" style="fill:#87bcbc;fill-opacity:1.00" />
  <polygon points="2946.2,135.0 2948.7,125.0 2943.7,125.0" style="fill:#cf232b; stroke-opacity:1; fill-opacity:1"/>
  <line x1="2975.4" y1="135.0" x2="2975.4" y2="165.0" style="stroke:#cf232b; stroke-width:0.8; stroke-opacity:1"/>
  <text style="" text-anchor="middle">
<tspan x="2946.2" y="116.0" style="font-size:18px;fill:#cf232b;" >+2</tspan>  </text>
  <text style="" text-anchor="middle">
<tspan x="2975.0" y="126.0" style="font-size:18px;fill:#cf232b;" >-1</tspan>  </text>
  <line x1="3004" y1="150.0" x2="3044" y2="150.0" style="stroke:#999; stroke-width:3;" />
  <rect class="anc_exon" x="3044" y="135.0" width="145" height="30" style="fill:#87bcbc;fill-opacity:1.00" />
  <line x1="3189" y1="150.0" x2="3229" y2="150.0" style="stroke:#999; stroke-width:3;" />
  <rect class="anc_exon" x="3229" y="135.0" width="26" height="30" style="fill:#87bcbc;fill-opacity:1.00" />
  <line x1="3255" y1="150.0" x2="3295" y2="150.0" style="stroke:#999; stroke-width:3;" />
  <rect class="anc_exon" x="3295" y="135.0" width="128" height="30" style="fill:#87bcbc;fill-opacity:1.00" />
  <line x1="3423" y1="150.0" x2="3463" y2="150.0" style="stroke:#999; stroke-width:3;" />
  <rect class="anc_exon" x="3463" y="135.0" width="17" height="30" style="fill:#0c7bdc;fill-opacity:1.00" />
  <line x1="3480" y1="150.0" x2="3520" y2="150.0" style="stroke:#999; stroke-width:3;" />
  <rect class="anc_exon" x="3520" y="135.0" width="64" height="30" style="fill:#87bcbc;fill-opacity:1.00" />
  <line x1="3559.2" y1="135.0" x2="3559.2" y2="165.0" style="stroke:#878787; stroke-width:1.6; stroke-opacity:1"/>
  <text style="" text-anchor="middle">
<tspan x="3558.4" y="126.0" style="font-size:18px;fill:#878787;" >-2</tspan>  </text>
  <line x1="3584" y1="150.0" x2="3624" y2="150.0" style="stroke:#999; stroke-width:3;" />
  <rect class="anc_exon" x="3624" y="135.0" width="151" height="30" style="fill:#87bcbc;fill-opacity:1.00" />
  <polygon points="3752.0,135.0 3754.5,125.0 3749.5,125.0" style="fill:#878787; stroke-opacity:1; fill-opacity:1"/>
  <text style="" text-anchor="middle">
<tspan x="3752.0" y="116.0" style="font-size:18px;fill:#878787;" >+2</tspan>  </text>
  <rect class="anc_exon" x="3775" y="135.0" width="0" height="30" style="fill:#87bcbc;fill-opacity:1.00" />
  <path d="M4.0 135.0 C 75.0 145.0 75.0 145.0 147.20000000000002 135.0" style="fill:none;stroke-width:1;stroke:green;" />
  <text style="" >
<tspan x="0" y="183.0" style="font-size:18px;" >SP ENSCGOT00000020721.671</tspan>  </text>
  <text style="fill:#cf232b;" >
<tspan x="1768" y="150.0" style="font-size:18px;fill:#cf232b;" >tc</tspan>  </text>
  <text style="fill:#878787;" >
<tspan x="3423" y="150.0" style="font-size:18px;fill:#878787;" >gg</tspan>  </text>



<script type="text/ecmascript">
<![CDATA[
function draw_bbox(text_id)
{
    var text_elem = document.getElementById(text_id);
    var offset_px = 2;
    var offset_py = 0;
    bbox = text_elem.getBBox();
    var box = document.createElementNS(document.rootElement.namespaceURI,'rect');
    box.setAttribute('x', bbox.x - offset_px);
    box.setAttribute('y', bbox.y - offset_py);
    box.setAttribute('width', bbox.width + offset_px * 2);
    box.setAttribute('height', bbox.height + offset_py * 2);
    box.setAttribute('style','fill: white;'+'stroke: black;'+'stroke-width: 1px;');
    text_elem.insertBefore(box,text_elem.childNodes[0]);

    var svg = text_elem.parentNode;
    svg.appendChild(text_elem);
}

for (var i=1; i < 1; i++)
{
draw_bbox("Mouseover" + i);
}
]]> 
</script>
</svg>
