<svg width="1280" height="720" xmlns="http://www.w3.org/2000/svg" xmlns:xlink="http://www.w3.org/1999/xlink" overflow="hidden"><g><rect x="0" y="0" width="1280" height="720" fill="#FFFFFF"/><path d="M29.6 140.8 947.305 140.8 947.305 289.424 29.6 289.424Z" fill="#156082" fill-rule="evenodd"/><path d="M947.305 140.8 1068.32 140.8 1068.32 289.424 947.305 289.424Z" fill="#156082" fill-rule="evenodd"/><path d="M1068.32 140.8 1250.4 140.8 1250.4 289.424 1068.32 289.424Z" fill="#156082" fill-rule="evenodd"/><path d="M29.6 289.424 947.305 289.424 947.305 337.424 29.6 337.424Z" fill="#156082" fill-rule="evenodd"/><path d="M947.305 289.424 1068.32 289.424 1068.32 337.424 947.305 337.424Z" fill="#CCD2D8" fill-rule="evenodd"/><path d="M1068.32 289.424 1250.4 289.424 1250.4 337.424 1068.32 337.424Z" fill="#CCD2D8" fill-rule="evenodd"/><path d="M29.6 337.424 947.305 337.424 947.305 385.424 29.6 385.424Z" fill="#156082" fill-rule="evenodd"/><path d="M947.305 337.424 1068.32 337.424 1068.32 385.424 947.305 385.424Z" fill="#E7EAED" fill-rule="evenodd"/><path d="M1068.32 337.424 1250.4 337.424 1250.4 385.424 1068.32 385.424Z" fill="#E7EAED" fill-rule="evenodd"/><path d="M29.6 385.424 947.305 385.424 947.305 433.424 29.6 433.424Z" fill="#156082" fill-rule="evenodd"/><path d="M947.305 385.424 1068.32 385.424 1068.32 433.424 947.305 433.424Z" fill="#CCD2D8" fill-rule="evenodd"/><path d="M1068.32 385.424 1250.4 385.424 1250.4 433.424 1068.32 433.424Z" fill="#CCD2D8" fill-rule="evenodd"/><path d="M29.6 433.424 947.305 433.424 947.305 481.424 29.6 481.424Z" fill="#156082" fill-rule="evenodd"/><path d="M947.305 433.424 1068.32 433.424 1068.32 481.424 947.305 481.424Z" fill="#E7EAED" fill-rule="evenodd"/><path d="M1068.32 433.424 1250.4 433.424 1250.4 481.424 1068.32 481.424Z" fill="#E7EAED" fill-rule="evenodd"/><path d="M947.305 140.133 947.305 482.09" stroke="#FFFFFF" stroke-width="1.33333" stroke-linejoin="round" stroke-miterlimit="10" fill="none" fill-rule="evenodd"/><path d="M1068.32 140.133 1068.32 482.09" stroke="#FFFFFF" stroke-width="1.33333" stroke-linejoin="round" stroke-miterlimit="10" fill="none" fill-rule="evenodd"/><path d="M28.9333 289.424 1251.07 289.424" stroke="#FFFFFF" stroke-width="4" stroke-linejoin="round" stroke-miterlimit="10" fill="none" fill-rule="evenodd"/><path d="M28.9333 337.424 1251.07 337.424" stroke="#FFFFFF" stroke-width="1.33333" stroke-linejoin="round" stroke-miterlimit="10" fill="none" fill-rule="evenodd"/><path d="M28.9333 385.424 1251.07 385.424" stroke="#FFFFFF" stroke-width="1.33333" stroke-linejoin="round" stroke-miterlimit="10" fill="none" fill-rule="evenodd"/><path d="M28.9333 433.424 1251.07 433.424" stroke="#FFFFFF" stroke-width="1.33333" stroke-linejoin="round" stroke-miterlimit="10" fill="none" fill-rule="evenodd"/><path d="M29.6 140.133 29.6 482.09" stroke="#FFFFFF" stroke-width="1.33333" stroke-linejoin="round" stroke-miterlimit="10" fill="none" fill-rule="evenodd"/><path d="M1250.4 140.133 1250.4 482.09" stroke="#FFFFFF" stroke-width="1.33333" stroke-linejoin="round" stroke-miterlimit="10" fill="none" fill-rule="evenodd"/><path d="M28.9333 140.8 1251.07 140.8" stroke="#FFFFFF" stroke-width="1.33333" stroke-linejoin="round" stroke-miterlimit="10" fill="none" fill-rule="evenodd"/><path d="M28.9333 481.424 1251.07 481.424" stroke="#FFFFFF" stroke-width="1.33333" stroke-linejoin="round" stroke-miterlimit="10" fill="none" fill-rule="evenodd"/><text fill="#FFFFFF" font-family="Aptos,Aptos_MSFontService,sans-serif" font-weight="700" font-size="24" transform="translate(1118.07 184)">Kidney</text><text fill="#FFFFFF" font-family="Aptos,Aptos_MSFontService,sans-serif" font-weight="700" font-size="24" transform="translate(1192.49 184)">-</text><text fill="#FFFFFF" font-family="Aptos,Aptos_MSFontService,sans-serif" font-weight="700" font-size="24" transform="translate(1099.33 228)">associated</text><text fill="#FFFFFF" font-family="Aptos,Aptos_MSFontService,sans-serif" font-weight="700" font-size="24" transform="translate(1098.26 271)">(846 genes)</text><text fill="#FFFFFF" font-family="Aptos,Aptos_MSFontService,sans-serif" font-weight="700" font-size="24" transform="translate(968.704 184)">Overall</text><text fill="#FFFFFF" font-family="Aptos,Aptos_MSFontService,sans-serif" font-weight="700" font-size="24" transform="translate(968.644 228)">(21,654</text><text fill="#FFFFFF" font-family="Aptos,Aptos_MSFontService,sans-serif" font-weight="700" font-size="24" transform="translate(971.877 271)">genes)</text><text font-family="Aptos,Aptos_MSFontService,sans-serif" font-weight="400" font-size="24" transform="translate(1140.11 326)">807</text><text font-family="Aptos,Aptos_MSFontService,sans-serif" font-weight="400" font-size="24" transform="translate(975.727 326)">20791</text><g><text fill="#FFFFFF" font-family="Aptos,Aptos_MSFontService,sans-serif" font-weight="700" font-size="24" transform="translate(36.8 326)">Genes with common status between both ragtag assemblies</text></g><text font-family="Aptos,Aptos_MSFontService,sans-serif" font-weight="400" font-size="24" transform="translate(1140.11 374)">749</text><text font-family="Aptos,Aptos_MSFontService,sans-serif" font-weight="400" font-size="24" transform="translate(975.727 374)">19514</text><g><text fill="#FFFFFF" font-family="Aptos,Aptos_MSFontService,sans-serif" font-weight="700" font-size="24" transform="translate(36.8 374)">Genes with common status between NCBI and ragtag from NCBI genome</text></g><text font-family="Aptos,Aptos_MSFontService,sans-serif" font-weight="400" font-size="24" transform="translate(1140.11 422)">742</text><text font-family="Aptos,Aptos_MSFontService,sans-serif" font-weight="400" font-size="24" transform="translate(975.727 422)">19270</text><g><text fill="#FFFFFF" font-family="Aptos,Aptos_MSFontService,sans-serif" font-weight="700" font-size="24" transform="translate(36.8 422)">Genes with common status between NCBI and ragtag from T. amazonica genome</text></g><text font-family="Aptos,Aptos_MSFontService,sans-serif" font-weight="400" font-size="24" transform="translate(1140.11 470)">730</text><text font-family="Aptos,Aptos_MSFontService,sans-serif" font-weight="400" font-size="24" transform="translate(975.727 470)">19046</text><g><text fill="#FFFFFF" font-family="Aptos,Aptos_MSFontService,sans-serif" font-weight="700" font-size="24" transform="translate(36.8 470)">Genes with common status between all assemblies</text></g></g></svg>