<svg width="1280" height="720" xmlns="http://www.w3.org/2000/svg" xmlns:xlink="http://www.w3.org/1999/xlink" overflow="hidden"><g><rect x="0" y="0" width="1280" height="720" fill="#FFFFFF"/><g><path d="M303.429 383.824C374.982 383.824 432.988 441.83 432.988 513.384 432.988 584.938 374.982 642.943 303.429 642.943 254.044 642.943 208.954 614.869 187.164 570.552L303.429 513.384Z" fill="#0E2841" fill-rule="evenodd"/></g><g><path d="M187.164 570.552C155.591 506.34 182.049 428.692 246.26 397.119 261.02 389.861 277.026 385.48 293.425 384.211L303.429 513.384Z" fill="#E97132" fill-rule="evenodd"/></g><g><path d="M293.425 384.211C294.155 384.154 294.886 384.104 295.618 384.06L303.429 513.384Z" fill="#47D45A" fill-rule="evenodd"/></g><g><path d="M295.618 384.06 303.429 513.384Z" fill="#0F9ED5" fill-rule="evenodd"/></g><g><path d="M295.618 384.06C298.218 383.903 300.823 383.824 303.428 383.824L303.429 513.384Z" fill="#A02B93" fill-rule="evenodd"/></g><g><path d="M294.5 384.5 289.5 370.5 283.5 370.5" stroke="#A6A6A6" stroke-linejoin="round" stroke-miterlimit="10" fill="none"/></g><g><path d="M299.5 383.5 302.5 369.5" stroke="#A6A6A6" stroke-linejoin="round" stroke-miterlimit="10" fill="none"/></g><g><text fill="#404040" font-family="Aptos,Aptos_MSFontService,sans-serif" font-weight="400" font-size="21" transform="translate(423.596 601)">67.72</text></g><g><text fill="#404040" font-family="Aptos,Aptos_MSFontService,sans-serif" font-weight="400" font-size="21" transform="translate(128.902 445)">31.04</text></g><g><text fill="#404040" font-family="Aptos,Aptos_MSFontService,sans-serif" font-weight="400" font-size="21" transform="translate(241.64 371)">0.27</text></g><g><text fill="#404040" font-family="Aptos,Aptos_MSFontService,sans-serif" font-weight="400" font-size="21" transform="translate(304.161 369)">0.96</text></g><g><text fill="#595959" font-family="Aptos,Aptos_MSFontService,sans-serif" font-weight="400" font-size="27" transform="translate(34.9219 339)">O. beta Ragtag Assembly using NCBI Assembly</text></g><g><rect x="210" y="689" width="11" height="12" fill="#0E2841"/></g><g><text fill="#595959" font-family="Aptos,Aptos_MSFontService,sans-serif" font-weight="400" font-size="21" transform="translate(226.781 701)">S</text></g><g><rect x="251" y="689" width="12" height="12" fill="#E97132"/></g><g><text fill="#595959" font-family="Aptos,Aptos_MSFontService,sans-serif" font-weight="400" font-size="21" transform="translate(268.214 701)">D</text></g><g><rect x="295" y="689" width="12" height="12" fill="#47D45A"/></g><g><text fill="#595959" font-family="Aptos,Aptos_MSFontService,sans-serif" font-weight="400" font-size="21" transform="translate(312.206 701)">F</text></g><g><rect x="336" y="689" width="11" height="12" fill="#0F9ED5"/></g><g><text fill="#595959" font-family="Aptos,Aptos_MSFontService,sans-serif" font-weight="400" font-size="21" transform="translate(352.751 701)">I</text></g><g><rect x="371" y="689" width="11" height="12" fill="#A02B93"/></g><g><text fill="#595959" font-family="Aptos,Aptos_MSFontService,sans-serif" font-weight="400" font-size="21" transform="translate(387.664 701)">M</text></g><g><path d="M940 383.824C1011.55 383.824 1069.56 441.83 1069.56 513.384 1069.56 584.938 1011.55 642.943 940 642.943 891.368 642.943 846.832 615.709 824.672 572.42L940 513.384Z" fill="#0E2841" fill-rule="evenodd"/></g><g><path d="M824.672 572.42C792.068 508.726 817.27 430.661 880.964 398.056 895.743 390.491 911.839 385.836 928.375 384.346L940 513.384Z" fill="#E97132" fill-rule="evenodd"/></g><g><path d="M928.375 384.346C929.483 384.247 930.592 384.161 931.702 384.09L940 513.384Z" fill="#47D45A" fill-rule="evenodd"/></g><g><path d="M931.702 384.09 940 513.384Z" fill="#0F9ED5" fill-rule="evenodd"/></g><g><path d="M931.702 384.09C934.465 383.913 937.232 383.824 940 383.824L940 513.384Z" fill="#A02B93" fill-rule="evenodd"/></g><g><path d="M930.5 384.5 918.5 371.5 912.5 371.5" stroke="#A6A6A6" stroke-linejoin="round" stroke-miterlimit="10" fill="none"/></g><g><path d="M935.5 383.5 943.5 368.5 949.5 368.5" stroke="#A6A6A6" stroke-linejoin="round" stroke-miterlimit="10" fill="none"/></g><g><text fill="#404040" font-family="Aptos,Aptos_MSFontService,sans-serif" font-weight="400" font-size="21" transform="translate(1060.74 600)">67.47</text></g><g><text fill="#404040" font-family="Aptos,Aptos_MSFontService,sans-serif" font-weight="400" font-size="21" transform="translate(776.025 447)">31.1</text></g><g><text fill="#404040" font-family="Aptos,Aptos_MSFontService,sans-serif" font-weight="400" font-size="21" transform="translate(870.179 371)">0.41</text></g><g><text fill="#404040" font-family="Aptos,Aptos_MSFontService,sans-serif" font-weight="400" font-size="21" transform="translate(951.444 369)">1.02</text></g><g><text fill="#595959" font-family="Aptos,Aptos_MSFontService,sans-serif" font-weight="400" font-size="27" transform="translate(626.79 339)">O. beta Ragtag Assembly using</text></g><g><text fill="#595959" font-family="Aptos,Aptos_MSFontService,sans-serif" font-weight="400" font-size="27" transform="translate(985.303 339)">T. amazonica</text></g><g><text fill="#595959" font-family="Aptos,Aptos_MSFontService,sans-serif" font-weight="400" font-size="27" transform="translate(1140.47 339)">Assembly</text></g><g><rect x="846" y="689" width="12" height="12" fill="#0E2841"/></g><g><text fill="#595959" font-family="Aptos,Aptos_MSFontService,sans-serif" font-weight="400" font-size="21" transform="translate(863.353 701)">S</text></g><g><rect x="888" y="689" width="11" height="12" fill="#E97132"/></g><g><text fill="#595959" font-family="Aptos,Aptos_MSFontService,sans-serif" font-weight="400" font-size="21" transform="translate(904.785 701)">D</text></g><g><rect x="932" y="689" width="11" height="12" fill="#47D45A"/></g><g><text fill="#595959" font-family="Aptos,Aptos_MSFontService,sans-serif" font-weight="400" font-size="21" transform="translate(948.777 701)">F</text></g><g><rect x="972" y="689" width="12" height="12" fill="#0F9ED5"/></g><g><text fill="#595959" font-family="Aptos,Aptos_MSFontService,sans-serif" font-weight="400" font-size="21" transform="translate(989.323 701)">I</text></g><g><rect x="1007" y="689" width="12" height="12" fill="#A02B93"/></g><g><text fill="#595959" font-family="Aptos,Aptos_MSFontService,sans-serif" font-weight="400" font-size="21" transform="translate(1024.24 701)">M</text></g><g><path d="M0 0 170 75" stroke="#A6A6A6" stroke-linejoin="round" stroke-miterlimit="10" fill="none" fill-rule="evenodd" transform="matrix(1 0 0 -1 597.5 173.5)"/></g><g><path d="M597.5 184.5 767.5 259.5" stroke="#A6A6A6" stroke-linejoin="round" stroke-miterlimit="10" fill="none" fill-rule="evenodd"/></g><g><path d="M597.777 184.871C594.541 249.612 539.434 299.471 474.693 296.234 409.952 292.998 360.093 237.891 363.329 173.15 366.566 108.409 421.673 58.5497 486.414 61.7863 546.627 64.7966 594.767 112.936 597.777 173.15L480.553 179.01Z" fill="#0E2841" fill-rule="evenodd"/></g><g><path d="M891.24 183.406C888.812 231.961 847.482 269.356 798.927 266.928 764.077 265.186 733.547 243.024 721.092 210.43L803.322 179.01Z" fill="#E97132" fill-rule="evenodd"/></g><g><path d="M721.092 210.43C709.645 180.471 715.397 146.657 736.107 122.168L803.322 179.01Z" fill="#47D45A" fill-rule="evenodd"/></g><g><path d="M736.107 122.168C738.354 119.511 740.756 116.99 743.302 114.617L803.322 179.01Z" fill="#0F9ED5" fill-rule="evenodd"/></g><g><path d="M743.302 114.618C778.865 81.4692 834.567 83.427 867.715 118.99 883.942 136.399 892.428 159.637 891.24 183.406L803.322 179.01Z" fill="#A02B93" fill-rule="evenodd"/></g><g><path d="M597.777 173.15C597.973 177.055 597.973 180.966 597.777 184.871L480.553 179.01Z" fill="#196B24" fill-rule="evenodd"/></g><g><path d="M573.5 174.5 574.5 156.5" stroke="#A6A6A6" stroke-linejoin="round" stroke-miterlimit="10" fill="none"/></g><g><text fill="#595959" font-family="Aptos,Aptos_MSFontService,sans-serif" font-weight="400" font-size="21" transform="translate(300.958 186)">98.41</text></g><g><text fill="#595959" font-family="Aptos,Aptos_MSFontService,sans-serif" font-weight="400" font-size="21" transform="translate(809.426 291)">0.69</text></g><g><text fill="#595959" font-family="Aptos,Aptos_MSFontService,sans-serif" font-weight="400" font-size="21" transform="translate(667.377 168)">0.27</text></g><g><text fill="#595959" font-family="Aptos,Aptos_MSFontService,sans-serif" font-weight="400" font-size="21" transform="translate(691.599 109)">0.03</text></g><g><text fill="#595959" font-family="Aptos,Aptos_MSFontService,sans-serif" font-weight="400" font-size="21" transform="translate(846.691 88)">0.6</text></g><g><text fill="#FFFFFF" font-family="Aptos,Aptos_MSFontService,sans-serif" font-weight="400" font-size="21" transform="translate(532.156 156)">1.59</text></g><g><text fill="#595959" font-family="Aptos,Aptos_MSFontService,sans-serif" font-weight="400" font-size="27" transform="translate(376.45 39)">O. beta genome obtained from NCBI</text></g><g><rect x="919" y="108" width="12" height="11" fill="#0E2841"/></g><g><text fill="#595959" font-family="Aptos,Aptos_MSFontService,sans-serif" font-weight="400" font-size="21" transform="translate(936.193 119)">S</text></g><g><rect x="919" y="141" width="12" height="12" fill="#E97132"/></g><g><text fill="#595959" font-family="Aptos,Aptos_MSFontService,sans-serif" font-weight="400" font-size="21" transform="translate(936.193 153)">D</text></g><g><rect x="919" y="175" width="12" height="12" fill="#47D45A"/></g><g><text fill="#595959" font-family="Aptos,Aptos_MSFontService,sans-serif" font-weight="400" font-size="21" transform="translate(936.193 187)">F</text></g><g><rect x="919" y="209" width="12" height="12" fill="#0F9ED5"/></g><g><text fill="#595959" font-family="Aptos,Aptos_MSFontService,sans-serif" font-weight="400" font-size="21" transform="translate(936.193 221)">I</text></g><g><rect x="919" y="243" width="12" height="12" fill="#A02B93"/></g><g><text fill="#595959" font-family="Aptos,Aptos_MSFontService,sans-serif" font-weight="400" font-size="21" transform="translate(936.193 255)">M</text></g></g></svg>