<svg width="1280" height="720" xmlns="http://www.w3.org/2000/svg" xmlns:xlink="http://www.w3.org/1999/xlink" overflow="hidden"><g><rect x="0" y="0" width="1280" height="720" fill="#FFFFFF"/><g><path d="M83.5001 429.5 628.5 429.5M83.5001 380.5 628.5 380.5M83.5001 331.5 628.5 331.5M83.5001 282.5 628.5 282.5M83.5001 233.5 628.5 233.5M83.5001 184.5 628.5 184.5M83.5001 134.5 628.5 134.5M83.5001 85.5001 628.5 85.5001" stroke="#D9D9D9" stroke-linejoin="round" stroke-miterlimit="10" fill="none"/></g><g><path d="M98 147 112 147 112 479 98 479ZM176 476 190 476 190 479 176 479ZM254 474 268 474 268 479 254 479ZM332 477 346 477 346 479 332 479ZM410 472 423 472 423 479 410 479ZM488 413 501 413 501 479 488 479ZM566 402 579 402 579 479 566 479Z" fill="#156082"/></g><g><path d="M116 158 129 158 129 479 116 479ZM194 473 207 473 207 479 194 479ZM271 474 285 474 285 479 271 479ZM349 477 363 477 363 479 349 479ZM427 463 441 463 441 479 427 479ZM505 409 519 409 519 479 505 479ZM583 408 596 408 596 479 583 479Z" fill="#E97132"/></g><g><path d="M133 159 147 159 147 479 133 479ZM211 472 224 472 224 479 211 479ZM289 472 302 472 302 479 289 479ZM367 477 380 477 380 479 367 479ZM444 461 458 461 458 479 444 479ZM522 410 536 410 536 479 522 479ZM600 410 614 410 614 479 600 479Z" fill="#196B24"/></g><g><path d="M83.5001 479.5 628.5 479.5" stroke="#D9D9D9" stroke-linejoin="round" stroke-miterlimit="10" fill="none" fill-rule="evenodd"/></g><g><text fill="#404040" font-family="Aptos,Aptos_MSFontService,sans-serif" font-weight="400" font-size="19" transform="translate(107.922 147)">66.00</text></g><g><text fill="#404040" font-family="Aptos,Aptos_MSFontService,sans-serif" font-weight="400" font-size="19" transform="translate(182.754 462)">1.09</text></g><g><text fill="#404040" font-family="Aptos,Aptos_MSFontService,sans-serif" font-weight="400" font-size="19" transform="translate(260.6 463)">1.11</text></g><g><text fill="#404040" font-family="Aptos,Aptos_MSFontService,sans-serif" font-weight="400" font-size="19" transform="translate(338.446 467)">0.37</text></g><g><text fill="#404040" font-family="Aptos,Aptos_MSFontService,sans-serif" font-weight="400" font-size="19" transform="translate(416.292 453)">2.77</text></g><g><text fill="#404040" font-family="Aptos,Aptos_MSFontService,sans-serif" font-weight="400" font-size="19" transform="translate(489.151 398)">13.92</text></g><g><text fill="#404040" font-family="Aptos,Aptos_MSFontService,sans-serif" font-weight="400" font-size="19" transform="translate(566.997 397)">14.74</text></g><g><text fill="#595959" font-family="Aptos,Aptos_MSFontService,sans-serif" font-weight="400" font-size="12" transform="translate(49.8667 482)">0.00</text></g><g><text fill="#595959" font-family="Aptos,Aptos_MSFontService,sans-serif" font-weight="400" font-size="12" transform="translate(43.4533 433)">10.00</text></g><g><text fill="#595959" font-family="Aptos,Aptos_MSFontService,sans-serif" font-weight="400" font-size="12" transform="translate(43.4533 384)">20.00</text></g><g><text fill="#595959" font-family="Aptos,Aptos_MSFontService,sans-serif" font-weight="400" font-size="12" transform="translate(43.4533 335)">30.00</text></g><g><text fill="#595959" font-family="Aptos,Aptos_MSFontService,sans-serif" font-weight="400" font-size="12" transform="translate(43.4533 285)">40.00</text></g><g><text fill="#595959" font-family="Aptos,Aptos_MSFontService,sans-serif" font-weight="400" font-size="12" transform="translate(43.4533 236)">50.00</text></g><g><text fill="#595959" font-family="Aptos,Aptos_MSFontService,sans-serif" font-weight="400" font-size="12" transform="translate(43.4533 187)">60.00</text></g><g><text fill="#595959" font-family="Aptos,Aptos_MSFontService,sans-serif" font-weight="400" font-size="12" transform="translate(43.4533 138)">70.00</text></g><g><text fill="#595959" font-family="Aptos,Aptos_MSFontService,sans-serif" font-weight="400" font-size="12" transform="translate(43.4533 89)">80.00</text></g><g><text fill="#595959" font-family="Aptos,Aptos_MSFontService,sans-serif" font-weight="400" font-size="12" transform="translate(120.975 498)">I</text></g><g><text fill="#595959" font-family="Aptos,Aptos_MSFontService,sans-serif" font-weight="400" font-size="12" transform="translate(195.358 498)">PI</text></g><g><text fill="#595959" font-family="Aptos,Aptos_MSFontService,sans-serif" font-weight="400" font-size="12" transform="translate(270.513 498)">PG</text></g><g><text fill="#595959" font-family="Aptos,Aptos_MSFontService,sans-serif" font-weight="400" font-size="12" transform="translate(347.869 498)">PM</text></g><g><text fill="#595959" font-family="Aptos,Aptos_MSFontService,sans-serif" font-weight="400" font-size="12" transform="translate(429.179 498)">M</text></g><g><text fill="#595959" font-family="Aptos,Aptos_MSFontService,sans-serif" font-weight="400" font-size="12" transform="translate(504.681 498)">UL</text></g><g><text fill="#595959" font-family="Aptos,Aptos_MSFontService,sans-serif" font-weight="400" font-size="12" transform="translate(586.614 498)">L</text></g><g><text fill="#595959" font-family="Aptos,Aptos_MSFontService,sans-serif" font-weight="400" font-size="19" transform="matrix(6.12323e-17 -1 1 6.12323e-17 34.6667 328)">Percentage</text></g><g><text fill="#595959" font-family="Aptos,Aptos_MSFontService,sans-serif" font-weight="400" font-size="24" transform="translate(175.917 63)">All Gene Status Percentages</text></g><g><rect x="77" y="520" width="10" height="10" fill="#156082"/></g><g><text fill="#595959" font-family="Aptos,Aptos_MSFontService,sans-serif" font-weight="400" font-size="19" transform="translate(91.5961 531)">obeta_ncbi</text></g><g><rect x="210" y="520" width="10" height="10" fill="#E97132"/></g><g><text fill="#595959" font-family="Aptos,Aptos_MSFontService,sans-serif" font-weight="400" font-size="19" transform="translate(225.097 531)">obeta_ragtag_ncbi</text></g><g><rect x="403" y="520" width="10" height="10" fill="#196B24"/></g><g><text fill="#595959" font-family="Aptos,Aptos_MSFontService,sans-serif" font-weight="400" font-size="19" transform="translate(417.384 531)">obeta_ragtag_tama</text></g><g><path d="M711.5 429.5 1255.5 429.5M711.5 380.5 1255.5 380.5M711.5 331.5 1255.5 331.5M711.5 282.5 1255.5 282.5M711.5 233.5 1255.5 233.5M711.5 184.5 1255.5 184.5M711.5 134.5 1255.5 134.5M711.5 85.5001 1255.5 85.5001" stroke="#D9D9D9" stroke-linejoin="round" stroke-miterlimit="10" fill="none"/></g><g><path d="M726 129 740 129 740 479 726 479ZM804 477 817 477 817 479 804 479ZM882 475 895 475 895 479 882 479ZM959 477 973 477 973 479 959 479ZM1037 477 1051 477 1051 479 1037 479ZM1115 418 1129 418 1129 479 1115 479ZM1193 409 1207 409 1207 479 1193 479Z" fill="#156082"/></g><g><path d="M743 142 757 142 757 479 743 479ZM821 472 835 472 835 479 821 479ZM899 476 912 476 912 479 899 479ZM977 476 990 476 990 479 977 479ZM1055 462 1068 462 1068 479 1055 479ZM1132 415 1146 415 1146 479 1132 479ZM1210 419 1224 419 1224 479 1210 479Z" fill="#E97132"/></g><g><path d="M760 139 774 139 774 479 760 479ZM838 472 852 472 852 479 838 479ZM916 475 930 475 930 479 916 479ZM994 478 1008 478 1008 479 994 479ZM1072 458 1085 458 1085 479 1072 479ZM1150 415 1163 415 1163 479 1150 479ZM1227 425 1241 425 1241 479 1227 479Z" fill="#196B24"/></g><g><path d="M711.5 479.5 1255.5 479.5" stroke="#D9D9D9" stroke-linejoin="round" stroke-miterlimit="10" fill="none" fill-rule="evenodd"/></g><g><path d="M749.5 141.5 751.5 129.5" stroke="#A6A6A6" stroke-linejoin="round" stroke-miterlimit="10" fill="none"/></g><g><text fill="#404040" font-family="Aptos,Aptos_MSFontService,sans-serif" font-weight="400" font-size="19" transform="translate(728.683 123)">69.62</text></g><g><text fill="#404040" font-family="Aptos,Aptos_MSFontService,sans-serif" font-weight="400" font-size="19" transform="translate(810.183 461)">1.06</text></g><g><text fill="#404040" font-family="Aptos,Aptos_MSFontService,sans-serif" font-weight="400" font-size="19" transform="translate(888.029 465)">0.79</text></g><g><text fill="#404040" font-family="Aptos,Aptos_MSFontService,sans-serif" font-weight="400" font-size="19" transform="translate(965.874 465)">0.43</text></g><g><text fill="#404040" font-family="Aptos,Aptos_MSFontService,sans-serif" font-weight="400" font-size="19" transform="translate(1043.72 452)">2.72</text></g><g><text fill="#404040" font-family="Aptos,Aptos_MSFontService,sans-serif" font-weight="400" font-size="19" transform="translate(1116.58 404)">12.84</text></g><g><text fill="#404040" font-family="Aptos,Aptos_MSFontService,sans-serif" font-weight="400" font-size="19" transform="translate(1194.43 408)">12.53</text></g><g><text fill="#595959" font-family="Aptos,Aptos_MSFontService,sans-serif" font-weight="400" font-size="12" transform="translate(677.295 482)">0.00</text></g><g><text fill="#595959" font-family="Aptos,Aptos_MSFontService,sans-serif" font-weight="400" font-size="12" transform="translate(670.882 433)">10.00</text></g><g><text fill="#595959" font-family="Aptos,Aptos_MSFontService,sans-serif" font-weight="400" font-size="12" transform="translate(670.882 384)">20.00</text></g><g><text fill="#595959" font-family="Aptos,Aptos_MSFontService,sans-serif" font-weight="400" font-size="12" transform="translate(670.882 335)">30.00</text></g><g><text fill="#595959" font-family="Aptos,Aptos_MSFontService,sans-serif" font-weight="400" font-size="12" transform="translate(670.882 285)">40.00</text></g><g><text fill="#595959" font-family="Aptos,Aptos_MSFontService,sans-serif" font-weight="400" font-size="12" transform="translate(670.882 236)">50.00</text></g><g><text fill="#595959" font-family="Aptos,Aptos_MSFontService,sans-serif" font-weight="400" font-size="12" transform="translate(670.882 187)">60.00</text></g><g><text fill="#595959" font-family="Aptos,Aptos_MSFontService,sans-serif" font-weight="400" font-size="12" transform="translate(670.882 138)">70.00</text></g><g><text fill="#595959" font-family="Aptos,Aptos_MSFontService,sans-serif" font-weight="400" font-size="12" transform="translate(670.882 89)">80.00</text></g><g><text fill="#595959" font-family="Aptos,Aptos_MSFontService,sans-serif" font-weight="400" font-size="12" transform="translate(748.403 498)">I</text></g><g><text fill="#595959" font-family="Aptos,Aptos_MSFontService,sans-serif" font-weight="400" font-size="12" transform="translate(822.786 498)">PI</text></g><g><text fill="#595959" font-family="Aptos,Aptos_MSFontService,sans-serif" font-weight="400" font-size="12" transform="translate(897.942 498)">PG</text></g><g><text fill="#595959" font-family="Aptos,Aptos_MSFontService,sans-serif" font-weight="400" font-size="12" transform="translate(975.298 498)">PM</text></g><g><text fill="#595959" font-family="Aptos,Aptos_MSFontService,sans-serif" font-weight="400" font-size="12" transform="translate(1056.61 498)">M</text></g><g><text fill="#595959" font-family="Aptos,Aptos_MSFontService,sans-serif" font-weight="400" font-size="12" transform="translate(1132.11 498)">UL</text></g><g><text fill="#595959" font-family="Aptos,Aptos_MSFontService,sans-serif" font-weight="400" font-size="12" transform="translate(1214.04 498)">L</text></g><g><text fill="#595959" font-family="Aptos,Aptos_MSFontService,sans-serif" font-weight="400" font-size="19" transform="matrix(6.12323e-17 -1 1 6.12323e-17 662.095 328)">Percentage</text></g><g><text fill="#595959" font-family="Aptos,Aptos_MSFontService,sans-serif" font-weight="400" font-size="24" transform="translate(720.852 63)">Kidney</text></g><g><text fill="#595959" font-family="Aptos,Aptos_MSFontService,sans-serif" font-weight="400" font-size="24" transform="translate(790.385 63)">-</text></g><g><text fill="#595959" font-family="Aptos,Aptos_MSFontService,sans-serif" font-weight="400" font-size="24" transform="translate(798.552 63)">associated Gene Status Percentages</text></g><g><rect x="725" y="521" width="10" height="10" fill="#156082"/></g><g><text fill="#595959" font-family="Aptos,Aptos_MSFontService,sans-serif" font-weight="400" font-size="19" transform="translate(739.594 531)">obeta_ncbi</text></g><g><rect x="839" y="521" width="10" height="10" fill="#E97132"/></g><g><text fill="#595959" font-family="Aptos,Aptos_MSFontService,sans-serif" font-weight="400" font-size="19" transform="translate(853.525 531)">obeta_ragtag_ncbi</text></g><g><rect x="1011" y="521" width="11" height="10" fill="#196B24"/></g><g><text fill="#595959" font-family="Aptos,Aptos_MSFontService,sans-serif" font-weight="400" font-size="19" transform="translate(1026.24 531)">obeta_ragtag_tama</text></g></g></svg>