<svg width="1280" height="720" xmlns="http://www.w3.org/2000/svg" xmlns:xlink="http://www.w3.org/1999/xlink" overflow="hidden"><g><rect x="0" y="0" width="1280" height="720" fill="#FFFFFF"/><path d="M131.129 115.475 838.413 115.475 838.413 163.007 131.129 163.007Z" fill="#156082" fill-rule="evenodd"/><path d="M838.413 115.475 1128 115.475 1128 163.007 838.413 163.007Z" fill="#156082" fill-rule="evenodd"/><path d="M131.129 163.007 838.413 163.007 838.413 210.538 131.129 210.538Z" fill="#156082" fill-rule="evenodd"/><path d="M838.413 163.007 1128 163.007 1128 210.538 838.413 210.538Z" fill="#CCD2D8" fill-rule="evenodd"/><path d="M131.129 210.538 838.413 210.538 838.413 258.069 131.129 258.069Z" fill="#156082" fill-rule="evenodd"/><path d="M838.413 210.538 1128 210.538 1128 258.069 838.413 258.069Z" fill="#E7EAED" fill-rule="evenodd"/><path d="M131.129 258.069 838.413 258.069 838.413 305.6 131.129 305.6Z" fill="#156082" fill-rule="evenodd"/><path d="M838.413 258.069 1128 258.069 1128 305.6 838.413 305.6Z" fill="#CCD2D8" fill-rule="evenodd"/><path d="M838.413 114.809 838.413 306.267" stroke="#FFFFFF" stroke-width="1.33333" stroke-linejoin="round" stroke-miterlimit="10" fill="none" fill-rule="evenodd"/><path d="M130.462 163.007 1128.67 163.007" stroke="#FFFFFF" stroke-width="4" stroke-linejoin="round" stroke-miterlimit="10" fill="none" fill-rule="evenodd"/><path d="M130.462 210.538 1128.67 210.538" stroke="#FFFFFF" stroke-width="1.33333" stroke-linejoin="round" stroke-miterlimit="10" fill="none" fill-rule="evenodd"/><path d="M130.462 258.069 1128.67 258.069" stroke="#FFFFFF" stroke-width="1.33333" stroke-linejoin="round" stroke-miterlimit="10" fill="none" fill-rule="evenodd"/><path d="M131.129 114.809 131.129 306.267" stroke="#FFFFFF" stroke-width="1.33333" stroke-linejoin="round" stroke-miterlimit="10" fill="none" fill-rule="evenodd"/><path d="M1128 114.809 1128 306.267" stroke="#FFFFFF" stroke-width="1.33333" stroke-linejoin="round" stroke-miterlimit="10" fill="none" fill-rule="evenodd"/><path d="M130.462 115.475 1128.67 115.475" stroke="#FFFFFF" stroke-width="1.33333" stroke-linejoin="round" stroke-miterlimit="10" fill="none" fill-rule="evenodd"/><path d="M130.462 305.6 1128.67 305.6" stroke="#FFFFFF" stroke-width="1.33333" stroke-linejoin="round" stroke-miterlimit="10" fill="none" fill-rule="evenodd"/><text fill="#FFFFFF" font-family="Aptos,Aptos_MSFontService,sans-serif" font-weight="700" font-size="24" transform="translate(866.903 152)">Softmask percentage</text><text fill="#FFFFFF" font-family="Aptos,Aptos_MSFontService,sans-serif" font-weight="700" font-size="24" transform="translate(431.054 152)">Assembly</text><text font-family="Aptos,Aptos_MSFontService,sans-serif" font-weight="400" font-size="24" transform="translate(944.206 199)">51.81%</text><g><text fill="#FFFFFF" font-family="Aptos,Aptos_MSFontService,sans-serif" font-weight="700" font-size="24" transform="translate(138.329 199)">O. beta NCBI Assembly</text></g><text font-family="Aptos,Aptos_MSFontService,sans-serif" font-weight="400" font-size="24" transform="translate(944.206 247)">69.85%</text><g><text fill="#FFFFFF" font-family="Aptos,Aptos_MSFontService,sans-serif" font-weight="700" font-size="24" transform="translate(138.329 247)">O. beta ragtag assembly with NCBI as reference</text></g><text font-family="Aptos,Aptos_MSFontService,sans-serif" font-weight="400" font-size="24" transform="translate(944.206 294)">68.41%</text><g><text fill="#FFFFFF" font-family="Aptos,Aptos_MSFontService,sans-serif" font-weight="700" font-size="24" transform="translate(138.329 294)">O. beta ragtag assembly with T. amazonica as reference</text></g></g></svg>